<?xml version="1.0" encoding="UTF-8"?>
<svg id="Layer_2" data-name="Layer 2" xmlns="http://www.w3.org/2000/svg" viewBox="0 0 164.2 67.01">
  <defs>
    <style>
      .cls-1 {
        fill: #214196;
      }

      .cls-2 {
        fill: #4bb255;
      }
    </style>
  </defs>
  <g id="Layer_1-2" data-name="Layer 1">
    <g>
      <path class="cls-1" d="M0,55.9c0-6.41,4.62-11.19,11.15-11.19,7.07,0,11.46,5.56,10.92,12.59H5.67c.35,3.42,2.68,5.13,5.56,5.13,2.14,0,4-.97,4.74-2.68h5.75c-1.59,5.05-5.87,7.26-10.45,7.26-6.68,0-11.27-4.74-11.27-11.11ZM16.16,53.22c-.62-2.33-2.37-3.92-5.05-3.92s-4.47,1.63-5.17,3.92h10.22Z"/>
      <path class="cls-1" d="M37.6,66.54h-6.64l-7.34-21.37h5.91l4.74,15.38,4.78-15.38h5.9l-7.34,21.37Z"/>
      <path class="cls-1" d="M48.01,45.18h5.56v3.73c1.32-2.8,3.65-4.2,6.68-4.2.51,0,.89.04,1.24.08v5.71c-.43-.04-.74-.08-1.36-.08-3.54,0-6.57,1.55-6.57,6.6v9.52h-5.56v-21.37Z"/>
      <path class="cls-1" d="M85.89,55.86c0,6.45-4.9,11.15-11.15,11.15s-11.11-4.74-11.11-11.15,4.97-11.15,11.11-11.15,11.15,4.7,11.15,11.15ZM69.22,55.86c0,3.54,2.41,5.87,5.52,5.87s5.52-2.33,5.52-5.87-2.41-5.87-5.52-5.87-5.52,2.37-5.52,5.87Z"/>
      <path class="cls-1" d="M101.08,66.54h-6.64l-7.34-21.37h5.91l4.74,15.38,4.78-15.38h5.9l-7.34,21.37Z"/>
      <path class="cls-1" d="M111.48,45.18h5.56v21.37h-5.56v-21.37Z"/>
      <path class="cls-1" d="M138.75,50.42l-10.84,10.88h11.11v5.24h-18.3v-5.24l10.8-10.88h-10.18v-5.24h17.4v5.24Z"/>
      <path class="cls-1" d="M142.17,55.86c0-6.6,4.24-11.15,9.71-11.15,3.03,0,5.28,1.4,6.76,3.46v-2.99h5.55l-.04,21.37h-5.56l.04-2.88c-1.52,2.02-3.73,3.34-6.72,3.34-5.59,0-9.75-4.58-9.75-11.15ZM158.64,55.86c0-3.5-2.37-5.87-5.48-5.87s-5.4,2.37-5.4,5.87,2.33,5.87,5.4,5.87,5.48-2.33,5.48-5.87Z"/>
    </g>
    <path class="cls-2" d="M100.92,6.81c-1.39,0-2.63.55-3.53,1.46-.12.12-.22.23-.32.36l-14.39,15.98c-.49.54-1.18.85-1.91.85s-1.42-.31-1.91-.85l-9.2-10.22c-.95-1.05-.87-2.68.18-3.63,1.05-.95,2.68-.86,3.63.19l7.3,8.11,9.48-10.53c.13-.13.24-.26.35-.38.69-.86,1.12-1.95,1.12-3.14,0-2.77-2.23-5-4.99-5h-20.83c-4.21,0-7.62,3.41-7.62,7.62v18.48c0,4.21,3.41,7.62,7.62,7.62h32.42c4.21,0,7.62-3.41,7.62-7.62v-14.29c0-2.77-2.23-5-5-5Z"/>
  </g>
</svg>