<?xml version="1.0" encoding="UTF-8"?>
<svg id="Layer_1" data-name="Layer 1" xmlns="http://www.w3.org/2000/svg" viewBox="0 0 512 512">
  <defs>
    <style>
      .cls-1 {
        fill: #4bb255;
      }
    </style>
  </defs>
  <path class="cls-1" d="M401.57,328.39l-43.19-43.19c-15.43-15.43-41.65-9.25-47.82,10.8-4.63,13.88-20.05,21.6-33.94,18.51-30.85-7.71-72.5-47.82-80.21-80.21-4.63-13.88,4.63-29.31,18.51-33.94,20.05-6.17,26.22-32.39,10.8-47.82l-43.19-43.19c-12.34-10.8-30.85-10.8-41.65,0l-29.31,29.31c-29.31,30.85,3.09,112.61,75.59,185.11,72.5,72.5,154.26,106.44,185.11,75.59l29.31-29.31c10.8-12.34,10.8-30.85,0-41.65Z"/>
</svg>