<?xml version="1.0" encoding="UTF-8"?>
<svg id="Layer_1" data-name="Layer 1" xmlns="http://www.w3.org/2000/svg" viewBox="0 0 512 512">
  <defs>
    <style>
      .cls-1 {
        fill: #11898f;
      }
    </style>
  </defs>
  <path class="cls-1" d="M443.32,348.67l-55.29-55.29c-19.75-19.75-53.32-11.85-61.22,13.82-5.92,17.77-25.67,27.65-43.44,23.7-39.49-9.87-92.81-61.22-102.68-102.68-5.92-17.77,5.92-37.52,23.7-43.44,25.67-7.9,33.57-41.47,13.82-61.22l-55.29-55.29c-15.8-13.82-39.49-13.82-53.32,0l-37.52,37.52c-37.52,39.49,3.95,144.15,96.76,236.96,92.81,92.81,197.47,136.26,236.96,96.76l37.52-37.52c13.82-15.8,13.82-39.49,0-53.32Z"/>
</svg>