<?xml version="1.0" encoding="UTF-8"?>
<svg id="Layer_1" data-name="Layer 1" xmlns="http://www.w3.org/2000/svg" viewBox="0 0 512 512">
  <defs>
    <style>
      .cls-1 {
        fill: #4bb255;
      }
    </style>
  </defs>
  <path class="cls-1" d="M320.73,203.36c-64.72,0-117.37,52.65-117.37,117.37s52.65,117.37,117.37,117.37,117.37-52.65,117.37-117.37-52.65-117.37-117.37-117.37ZM320.73,310.06c17.65,0,32.01,14.36,32.01,32.01,0,13.89-8.95,25.63-21.34,30.05v23.31h-21.34v-23.31c-12.39-4.42-21.34-16.15-21.34-30.05h21.34c0,5.89,4.78,10.67,10.67,10.67s10.67-4.78,10.67-10.67-4.78-10.67-10.67-10.67c-17.65,0-32.01-14.36-32.01-32.01,0-13.89,8.95-25.63,21.34-30.05v-23.31h21.34v23.31c12.39,4.42,21.34,16.15,21.34,30.05h-21.34c0-5.89-4.78-10.67-10.67-10.67s-10.67,4.78-10.67,10.67,4.78,10.67,10.67,10.67Z"/>
  <path class="cls-1" d="M192.69,203.36c65.81,0,117.37-28.12,117.37-64.02s-51.56-65.44-117.37-65.44-118.8,29.55-118.8,65.44,52.98,64.02,118.8,64.02Z"/>
  <path class="cls-1" d="M73.89,314.02v17.39c0,35.9,52.98,64.02,118.8,64.02,3.73,0,7.35-.34,11.03-.52-8.18-12.87-14.29-27.15-17.88-42.41-47.59-1.31-88.92-15.94-111.94-38.47Z"/>
  <path class="cls-1" d="M182.53,330.86c-.24-3.36-.51-6.71-.51-10.13,0-11.12,1.46-21.89,3.94-32.26-47.65-1.29-89.03-15.92-112.07-38.48v17.39c0,33.99,47.85,60.71,108.64,63.48Z"/>
  <path class="cls-1" d="M192.69,267.38s.02,0,.03,0c7.04-16.82,17.27-31.98,29.97-44.68-9.64,1.22-19.6,2-30,2-50.66,0-94.66-15.11-118.8-38.73v17.39c0,35.9,52.98,64.02,118.8,64.02Z"/>
</svg>