<?xml version="1.0" encoding="UTF-8"?>
<svg id="Layer_1" data-name="Layer 1" xmlns="http://www.w3.org/2000/svg" viewBox="0 0 512 512">
  <defs>
    <style>
      .cls-1 {
        fill: #11898f;
      }
    </style>
  </defs>
  <path class="cls-1" d="M328.19,197.29c-72.18,0-130.9,58.72-130.9,130.9s58.72,130.9,130.9,130.9,130.9-58.72,130.9-130.9-58.72-130.9-130.9-130.9ZM328.19,316.29c19.69,0,35.7,16.01,35.7,35.7,0,15.49-9.98,28.58-23.8,33.51v25.99h-23.8v-25.99c-13.82-4.93-23.8-18.01-23.8-33.51h23.8c0,6.57,5.33,11.9,11.9,11.9s11.9-5.33,11.9-11.9-5.33-11.9-11.9-11.9c-19.69,0-35.7-16.01-35.7-35.7,0-15.49,9.98-28.58,23.8-33.51v-25.99h23.8v25.99c13.82,4.93,23.8,18.01,23.8,33.51h-23.8c0-6.57-5.33-11.9-11.9-11.9s-11.9,5.33-11.9,11.9,5.33,11.9,11.9,11.9Z"/>
  <path class="cls-1" d="M185.39,197.29c73.4,0,130.9-31.37,130.9-71.4s-57.5-72.99-130.9-72.99S52.9,85.86,52.9,125.89s59.09,71.4,132.49,71.4Z"/>
  <path class="cls-1" d="M52.9,320.7v19.39c0,40.04,59.09,71.4,132.49,71.4,4.16,0,8.2-.38,12.3-.58-9.13-14.35-15.94-30.28-19.94-47.3-53.08-1.47-99.17-17.78-124.84-42.9Z"/>
  <path class="cls-1" d="M174.06,339.49c-.27-3.74-.57-7.48-.57-11.29,0-12.41,1.63-24.41,4.4-35.98-53.14-1.44-99.29-17.76-124.99-42.91v19.39c0,37.91,53.36,67.71,121.16,70.79Z"/>
  <path class="cls-1" d="M185.39,268.69s.02,0,.04,0c7.85-18.76,19.26-35.67,33.43-49.83-10.75,1.36-21.85,2.24-33.46,2.24-56.5,0-105.57-16.85-132.49-43.19v19.39c0,40.04,59.09,71.4,132.49,71.4Z"/>
</svg>